<?xml version="1.0" encoding="us-ascii" standalone="no"?><svg xmlns="http://www.w3.org/2000/svg" xmlns:xlink="http://www.w3.org/1999/xlink" contentStyleType="text/css" height="419px" preserveAspectRatio="none" style="width:1069px;height:419px;background:#FFFFFF;" version="1.1" viewBox="0 0 1069 419" width="1069px" zoomAndPan="magnify"><defs/><g><!--cluster Thread 0--><g id="cluster_Thread 0"><path d="M8.5,207.13 L69.5,207.13 A3.75,3.75 0 0 1 72,209.63 L79,232.1979 L489.5,232.1979 A2.5,2.5 0 0 1 492,234.6979 L492,409.7 A2.5,2.5 0 0 1 489.5,412.2 L8.5,412.2 A2.5,2.5 0 0 1 6,409.7 L6,209.63 A2.5,2.5 0 0 1 8.5,207.13 " fill="none" style="stroke:#000000;stroke-width:1.5;"/><line style="stroke:#000000;stroke-width:1.5;" x1="6" x2="79" y1="232.1979" y2="232.1979"/><text fill="#000000" font-family="sans-serif" font-size="14" font-weight="bold" lengthAdjust="spacing" textLength="60" x="10" y="224.0959">Thread 0</text></g><!--cluster Thread 1--><g id="cluster_Thread 1"><path d="M518.5,207.13 L579.5,207.13 A3.75,3.75 0 0 1 582,209.63 L589,232.1979 L679.5,232.1979 A2.5,2.5 0 0 1 682,234.6979 L682,409.7 A2.5,2.5 0 0 1 679.5,412.2 L518.5,412.2 A2.5,2.5 0 0 1 516,409.7 L516,209.63 A2.5,2.5 0 0 1 518.5,207.13 " fill="none" style="stroke:#000000;stroke-width:1.5;"/><line style="stroke:#000000;stroke-width:1.5;" x1="516" x2="589" y1="232.1979" y2="232.1979"/><text fill="#000000" font-family="sans-serif" font-size="14" font-weight="bold" lengthAdjust="spacing" textLength="60" x="520" y="224.0959">Thread 1</text></g><!--cluster Thread 2--><g id="cluster_Thread 2"><path d="M708.5,207.13 L769.5,207.13 A3.75,3.75 0 0 1 772,209.63 L779,232.1979 L869.5,232.1979 A2.5,2.5 0 0 1 872,234.6979 L872,409.7 A2.5,2.5 0 0 1 869.5,412.2 L708.5,412.2 A2.5,2.5 0 0 1 706,409.7 L706,209.63 A2.5,2.5 0 0 1 708.5,207.13 " fill="none" style="stroke:#000000;stroke-width:1.5;"/><line style="stroke:#000000;stroke-width:1.5;" x1="706" x2="779" y1="232.1979" y2="232.1979"/><text fill="#000000" font-family="sans-serif" font-size="14" font-weight="bold" lengthAdjust="spacing" textLength="60" x="710" y="224.0959">Thread 2</text></g><!--cluster Thread 3--><g id="cluster_Thread 3"><path d="M898.5,207.13 L959.5,207.13 A3.75,3.75 0 0 1 962,209.63 L969,232.1979 L1059.5,232.1979 A2.5,2.5 0 0 1 1062,234.6979 L1062,409.7 A2.5,2.5 0 0 1 1059.5,412.2 L898.5,412.2 A2.5,2.5 0 0 1 896,409.7 L896,209.63 A2.5,2.5 0 0 1 898.5,207.13 " fill="none" style="stroke:#000000;stroke-width:1.5;"/><line style="stroke:#000000;stroke-width:1.5;" x1="896" x2="969" y1="232.1979" y2="232.1979"/><text fill="#000000" font-family="sans-serif" font-size="14" font-weight="bold" lengthAdjust="spacing" textLength="60" x="900" y="224.0959">Thread 3</text></g><!--class tm0--><g id="elem_tm0"><rect codeLine="14" fill="#F1F1F1" height="59.0679" id="tm0" rx="2.5" ry="2.5" style="stroke:#181818;stroke-width:0.5;" width="453" x="22.5" y="245.13"/><ellipse cx="198.75" cy="261.13" fill="#ADD1B2" rx="11" ry="11" style="stroke:#181818;stroke-width:1.0;"/><path d="M198.2188,268.0519 Q196.4688,268.0519 195.3281,267.3175 Q194.2031,266.5675 193.6406,265.2238 Q193.0938,263.8644 193.0938,262.0675 Q193.0938,260.0363 193.75,258.5831 Q194.4063,257.13 195.6875,256.3488 Q196.9688,255.5675 198.8438,255.5675 Q199.7344,255.5675 200.4063,255.755 Q201.0781,255.9269 201.7656,256.2706 L200.9531,258.2863 Q200.3281,257.9738 199.7813,257.8488 Q199.25,257.7238 198.7656,257.7238 Q197.5938,257.7238 196.8906,258.255 Q196.1875,258.7863 195.8906,259.7394 Q195.5938,260.6925 195.5938,261.9581 Q195.5938,263.9738 196.3125,264.9425 Q197.0313,265.8956 198.625,265.8956 Q199.2188,265.8956 199.8438,265.7394 Q200.4688,265.5831 201.2969,265.2081 L201.2969,267.4269 Q200.5625,267.7394 199.7656,267.8956 Q198.9844,268.0519 198.2188,268.0519 Z " fill="#000000"/><text fill="#000000" font-family="sans-serif" font-size="14" lengthAdjust="spacing" textLength="92" x="219.25" y="266.562">ThreadObject</text><line style="stroke:#181818;stroke-width:0.5;" x1="23.5" x2="474.5" y1="277.13" y2="277.13"/><text fill="#000000" font-family="sans-serif" font-size="14" lengthAdjust="spacing" textLength="441" x="28.5" y="296.0959">val instanceObject by injection(scope = InjectionScope.INSTANCE)</text></g><!--class im0--><g id="elem_im0"><rect codeLine="17" fill="#F1F1F1" height="32" id="im0" rx="2.5" ry="2.5" style="stroke:#181818;stroke-width:0.5;" width="134" x="182" y="364.2"/><ellipse cx="197" cy="380.2" fill="#ADD1B2" rx="11" ry="11" style="stroke:#181818;stroke-width:1.0;"/><path d="M196.4688,387.1219 Q194.7188,387.1219 193.5781,386.3875 Q192.4531,385.6375 191.8906,384.2938 Q191.3438,382.9344 191.3438,381.1375 Q191.3438,379.1063 192,377.6531 Q192.6563,376.2 193.9375,375.4188 Q195.2188,374.6375 197.0938,374.6375 Q197.9844,374.6375 198.6563,374.825 Q199.3281,374.9969 200.0156,375.3406 L199.2031,377.3563 Q198.5781,377.0438 198.0313,376.9188 Q197.5,376.7938 197.0156,376.7938 Q195.8438,376.7938 195.1406,377.325 Q194.4375,377.8563 194.1406,378.8094 Q193.8438,379.7625 193.8438,381.0281 Q193.8438,383.0438 194.5625,384.0125 Q195.2813,384.9656 196.875,384.9656 Q197.4688,384.9656 198.0938,384.8094 Q198.7188,384.6531 199.5469,384.2781 L199.5469,386.4969 Q198.8125,386.8094 198.0156,386.9656 Q197.2344,387.1219 196.4688,387.1219 Z " fill="#000000"/><text fill="#000000" font-family="sans-serif" font-size="14" lengthAdjust="spacing" textLength="102" x="211" y="385.632">InstanceObject</text></g><!--class tm1--><g id="elem_tm1"><rect codeLine="23" fill="#F1F1F1" height="59.0679" id="tm1" rx="2.5" ry="2.5" style="stroke:#181818;stroke-width:0.5;" width="124" x="539" y="245.13"/><ellipse cx="554" cy="261.13" fill="#ADD1B2" rx="11" ry="11" style="stroke:#181818;stroke-width:1.0;"/><path d="M553.4688,268.0519 Q551.7188,268.0519 550.5781,267.3175 Q549.4531,266.5675 548.8906,265.2238 Q548.3438,263.8644 548.3438,262.0675 Q548.3438,260.0363 549,258.5831 Q549.6563,257.13 550.9375,256.3488 Q552.2188,255.5675 554.0938,255.5675 Q554.9844,255.5675 555.6563,255.755 Q556.3281,255.9269 557.0156,256.2706 L556.2031,258.2863 Q555.5781,257.9738 555.0313,257.8488 Q554.5,257.7238 554.0156,257.7238 Q552.8438,257.7238 552.1406,258.255 Q551.4375,258.7863 551.1406,259.7394 Q550.8438,260.6925 550.8438,261.9581 Q550.8438,263.9738 551.5625,264.9425 Q552.2813,265.8956 553.875,265.8956 Q554.4688,265.8956 555.0938,265.7394 Q555.7188,265.5831 556.5469,265.2081 L556.5469,267.4269 Q555.8125,267.7394 555.0156,267.8956 Q554.2344,268.0519 553.4688,268.0519 Z " fill="#000000"/><text fill="#000000" font-family="sans-serif" font-size="14" lengthAdjust="spacing" textLength="92" x="568" y="266.562">ThreadObject</text><line style="stroke:#181818;stroke-width:0.5;" x1="540" x2="662" y1="277.13" y2="277.13"/><text fill="#000000" font-family="sans-serif" font-size="14" lengthAdjust="spacing" textLength="20" x="545" y="296.0959">(...)</text></g><!--class im1--><g id="elem_im1"><rect codeLine="26" fill="#F1F1F1" height="32" id="im1" rx="2.5" ry="2.5" style="stroke:#181818;stroke-width:0.5;" width="134" x="532" y="364.2"/><ellipse cx="547" cy="380.2" fill="#ADD1B2" rx="11" ry="11" style="stroke:#181818;stroke-width:1.0;"/><path d="M546.4688,387.1219 Q544.7188,387.1219 543.5781,386.3875 Q542.4531,385.6375 541.8906,384.2938 Q541.3438,382.9344 541.3438,381.1375 Q541.3438,379.1063 542,377.6531 Q542.6563,376.2 543.9375,375.4188 Q545.2188,374.6375 547.0938,374.6375 Q547.9844,374.6375 548.6563,374.825 Q549.3281,374.9969 550.0156,375.3406 L549.2031,377.3563 Q548.5781,377.0438 548.0313,376.9188 Q547.5,376.7938 547.0156,376.7938 Q545.8438,376.7938 545.1406,377.325 Q544.4375,377.8563 544.1406,378.8094 Q543.8438,379.7625 543.8438,381.0281 Q543.8438,383.0438 544.5625,384.0125 Q545.2813,384.9656 546.875,384.9656 Q547.4688,384.9656 548.0938,384.8094 Q548.7188,384.6531 549.5469,384.2781 L549.5469,386.4969 Q548.8125,386.8094 548.0156,386.9656 Q547.2344,387.1219 546.4688,387.1219 Z " fill="#000000"/><text fill="#000000" font-family="sans-serif" font-size="14" lengthAdjust="spacing" textLength="102" x="561" y="385.632">InstanceObject</text></g><!--class tm2--><g id="elem_tm2"><rect codeLine="32" fill="#F1F1F1" height="59.0679" id="tm2" rx="2.5" ry="2.5" style="stroke:#181818;stroke-width:0.5;" width="124" x="724" y="245.13"/><ellipse cx="739" cy="261.13" fill="#ADD1B2" rx="11" ry="11" style="stroke:#181818;stroke-width:1.0;"/><path d="M738.4688,268.0519 Q736.7188,268.0519 735.5781,267.3175 Q734.4531,266.5675 733.8906,265.2238 Q733.3438,263.8644 733.3438,262.0675 Q733.3438,260.0363 734,258.5831 Q734.6563,257.13 735.9375,256.3488 Q737.2188,255.5675 739.0938,255.5675 Q739.9844,255.5675 740.6563,255.755 Q741.3281,255.9269 742.0156,256.2706 L741.2031,258.2863 Q740.5781,257.9738 740.0313,257.8488 Q739.5,257.7238 739.0156,257.7238 Q737.8438,257.7238 737.1406,258.255 Q736.4375,258.7863 736.1406,259.7394 Q735.8438,260.6925 735.8438,261.9581 Q735.8438,263.9738 736.5625,264.9425 Q737.2813,265.8956 738.875,265.8956 Q739.4688,265.8956 740.0938,265.7394 Q740.7188,265.5831 741.5469,265.2081 L741.5469,267.4269 Q740.8125,267.7394 740.0156,267.8956 Q739.2344,268.0519 738.4688,268.0519 Z " fill="#000000"/><text fill="#000000" font-family="sans-serif" font-size="14" lengthAdjust="spacing" textLength="92" x="753" y="266.562">ThreadObject</text><line style="stroke:#181818;stroke-width:0.5;" x1="725" x2="847" y1="277.13" y2="277.13"/><text fill="#000000" font-family="sans-serif" font-size="14" lengthAdjust="spacing" textLength="20" x="730" y="296.0959">(...)</text></g><!--class im2--><g id="elem_im2"><rect codeLine="35" fill="#F1F1F1" height="32" id="im2" rx="2.5" ry="2.5" style="stroke:#181818;stroke-width:0.5;" width="134" x="722" y="364.2"/><ellipse cx="737" cy="380.2" fill="#ADD1B2" rx="11" ry="11" style="stroke:#181818;stroke-width:1.0;"/><path d="M736.4688,387.1219 Q734.7188,387.1219 733.5781,386.3875 Q732.4531,385.6375 731.8906,384.2938 Q731.3438,382.9344 731.3438,381.1375 Q731.3438,379.1063 732,377.6531 Q732.6563,376.2 733.9375,375.4188 Q735.2188,374.6375 737.0938,374.6375 Q737.9844,374.6375 738.6563,374.825 Q739.3281,374.9969 740.0156,375.3406 L739.2031,377.3563 Q738.5781,377.0438 738.0313,376.9188 Q737.5,376.7938 737.0156,376.7938 Q735.8438,376.7938 735.1406,377.325 Q734.4375,377.8563 734.1406,378.8094 Q733.8438,379.7625 733.8438,381.0281 Q733.8438,383.0438 734.5625,384.0125 Q735.2813,384.9656 736.875,384.9656 Q737.4688,384.9656 738.0938,384.8094 Q738.7188,384.6531 739.5469,384.2781 L739.5469,386.4969 Q738.8125,386.8094 738.0156,386.9656 Q737.2344,387.1219 736.4688,387.1219 Z " fill="#000000"/><text fill="#000000" font-family="sans-serif" font-size="14" lengthAdjust="spacing" textLength="102" x="751" y="385.632">InstanceObject</text></g><!--class tm3--><g id="elem_tm3"><rect codeLine="41" fill="#F1F1F1" height="59.0679" id="tm3" rx="2.5" ry="2.5" style="stroke:#181818;stroke-width:0.5;" width="124" x="914" y="245.13"/><ellipse cx="929" cy="261.13" fill="#ADD1B2" rx="11" ry="11" style="stroke:#181818;stroke-width:1.0;"/><path d="M928.4688,268.0519 Q926.7188,268.0519 925.5781,267.3175 Q924.4531,266.5675 923.8906,265.2238 Q923.3438,263.8644 923.3438,262.0675 Q923.3438,260.0363 924,258.5831 Q924.6563,257.13 925.9375,256.3488 Q927.2188,255.5675 929.0938,255.5675 Q929.9844,255.5675 930.6563,255.755 Q931.3281,255.9269 932.0156,256.2706 L931.2031,258.2863 Q930.5781,257.9738 930.0313,257.8488 Q929.5,257.7238 929.0156,257.7238 Q927.8438,257.7238 927.1406,258.255 Q926.4375,258.7863 926.1406,259.7394 Q925.8438,260.6925 925.8438,261.9581 Q925.8438,263.9738 926.5625,264.9425 Q927.2813,265.8956 928.875,265.8956 Q929.4688,265.8956 930.0938,265.7394 Q930.7188,265.5831 931.5469,265.2081 L931.5469,267.4269 Q930.8125,267.7394 930.0156,267.8956 Q929.2344,268.0519 928.4688,268.0519 Z " fill="#000000"/><text fill="#000000" font-family="sans-serif" font-size="14" lengthAdjust="spacing" textLength="92" x="943" y="266.562">ThreadObject</text><line style="stroke:#181818;stroke-width:0.5;" x1="915" x2="1037" y1="277.13" y2="277.13"/><text fill="#000000" font-family="sans-serif" font-size="14" lengthAdjust="spacing" textLength="20" x="920" y="296.0959">(...)</text></g><!--class im3--><g id="elem_im3"><rect codeLine="44" fill="#F1F1F1" height="32" id="im3" rx="2.5" ry="2.5" style="stroke:#181818;stroke-width:0.5;" width="134" x="912" y="364.2"/><ellipse cx="927" cy="380.2" fill="#ADD1B2" rx="11" ry="11" style="stroke:#181818;stroke-width:1.0;"/><path d="M926.4688,387.1219 Q924.7188,387.1219 923.5781,386.3875 Q922.4531,385.6375 921.8906,384.2938 Q921.3438,382.9344 921.3438,381.1375 Q921.3438,379.1063 922,377.6531 Q922.6563,376.2 923.9375,375.4188 Q925.2188,374.6375 927.0938,374.6375 Q927.9844,374.6375 928.6563,374.825 Q929.3281,374.9969 930.0156,375.3406 L929.2031,377.3563 Q928.5781,377.0438 928.0313,376.9188 Q927.5,376.7938 927.0156,376.7938 Q925.8438,376.7938 925.1406,377.325 Q924.4375,377.8563 924.1406,378.8094 Q923.8438,379.7625 923.8438,381.0281 Q923.8438,383.0438 924.5625,384.0125 Q925.2813,384.9656 926.875,384.9656 Q927.4688,384.9656 928.0938,384.8094 Q928.7188,384.6531 929.5469,384.2781 L929.5469,386.4969 Q928.8125,386.8094 928.0156,386.9656 Q927.2344,387.1219 926.4688,387.1219 Z " fill="#000000"/><text fill="#000000" font-family="sans-serif" font-size="14" lengthAdjust="spacing" textLength="102" x="941" y="385.632">InstanceObject</text></g><!--class Application--><g id="elem_Application"><rect codeLine="4" fill="#F1F1F1" height="59.0679" id="Application" rx="2.5" ry="2.5" style="stroke:#181818;stroke-width:0.5;" width="433" x="477.5" y="7"/><ellipse cx="651.75" cy="23" fill="#ADD1B2" rx="11" ry="11" style="stroke:#181818;stroke-width:1.0;"/><path d="M651.2188,29.9219 Q649.4688,29.9219 648.3281,29.1875 Q647.2031,28.4375 646.6406,27.0938 Q646.0938,25.7344 646.0938,23.9375 Q646.0938,21.9063 646.75,20.4531 Q647.4063,19 648.6875,18.2188 Q649.9688,17.4375 651.8438,17.4375 Q652.7344,17.4375 653.4063,17.625 Q654.0781,17.7969 654.7656,18.1406 L653.9531,20.1563 Q653.3281,19.8438 652.7813,19.7188 Q652.25,19.5938 651.7656,19.5938 Q650.5938,19.5938 649.8906,20.125 Q649.1875,20.6563 648.8906,21.6094 Q648.5938,22.5625 648.5938,23.8281 Q648.5938,25.8438 649.3125,26.8125 Q650.0313,27.7656 651.625,27.7656 Q652.2188,27.7656 652.8438,27.6094 Q653.4688,27.4531 654.2969,27.0781 L654.2969,29.2969 Q653.5625,29.6094 652.7656,29.7656 Q651.9844,29.9219 651.2188,29.9219 Z " fill="#000000"/><text fill="#000000" font-family="sans-serif" font-size="14" lengthAdjust="spacing" textLength="76" x="672.25" y="28.432">Application</text><line style="stroke:#181818;stroke-width:0.5;" x1="478.5" x2="909.5" y1="39" y2="39"/><text fill="#000000" font-family="sans-serif" font-size="14" lengthAdjust="spacing" textLength="421" x="483.5" y="57.9659">val globalObject by injection(scope = InjectionScope.RUNTIME)</text></g><!--class GlobalObject--><g id="elem_GlobalObject"><rect codeLine="7" fill="#F1F1F1" height="59.0679" id="GlobalObject" rx="2.5" ry="2.5" style="stroke:#181818;stroke-width:0.5;" width="426" x="481" y="126.06"/><ellipse cx="646.25" cy="142.06" fill="#ADD1B2" rx="11" ry="11" style="stroke:#181818;stroke-width:1.0;"/><path d="M645.7188,148.9819 Q643.9688,148.9819 642.8281,148.2475 Q641.7031,147.4975 641.1406,146.1538 Q640.5938,144.7944 640.5938,142.9975 Q640.5938,140.9663 641.25,139.5131 Q641.9063,138.06 643.1875,137.2788 Q644.4688,136.4975 646.3438,136.4975 Q647.2344,136.4975 647.9063,136.685 Q648.5781,136.8569 649.2656,137.2006 L648.4531,139.2163 Q647.8281,138.9038 647.2813,138.7788 Q646.75,138.6538 646.2656,138.6538 Q645.0938,138.6538 644.3906,139.185 Q643.6875,139.7163 643.3906,140.6694 Q643.0938,141.6225 643.0938,142.8881 Q643.0938,144.9038 643.8125,145.8725 Q644.5313,146.8256 646.125,146.8256 Q646.7188,146.8256 647.3438,146.6694 Q647.9688,146.5131 648.7969,146.1381 L648.7969,148.3569 Q648.0625,148.6694 647.2656,148.8256 Q646.4844,148.9819 645.7188,148.9819 Z " fill="#000000"/><text fill="#000000" font-family="sans-serif" font-size="14" lengthAdjust="spacing" textLength="87" x="666.75" y="147.492">GlobalObject</text><line style="stroke:#181818;stroke-width:0.5;" x1="482" x2="906" y1="158.06" y2="158.06"/><text fill="#000000" font-family="sans-serif" font-size="14" lengthAdjust="spacing" textLength="414" x="487" y="177.0259">val threadObject by injection(scope = InjectionScope.THREAD)</text></g><!--reverse link Application to GlobalObject--><g id="link_Application_GlobalObject"><path codeLine="11" d="M694,78.47 C694,96.48 694,107.56 694,125.59 " fill="none" id="Application-backto-GlobalObject" style="stroke:#181818;stroke-width:1.0;"/><polygon fill="#181818" points="694,66.47,690,72.47,694,78.47,698,72.47,694,66.47" style="stroke:#181818;stroke-width:1.0;"/></g><!--reverse link GlobalObject to tm0--><g id="link_GlobalObject_tm0"><path codeLine="18" d="M558.673,188.3588 C540.423,192.8188 533.53,194.59 516,199.13 C460.67,213.46 399.23,230.53 349.24,244.72 " fill="none" id="GlobalObject-backto-tm0" style="stroke:#181818;stroke-width:1.0;"/><polygon fill="#181818" points="570.33,185.51,563.5519,183.0487,558.673,188.3588,565.4511,190.82,570.33,185.51" style="stroke:#181818;stroke-width:1.0;"/></g><!--reverse link tm0 to im0--><g id="link_tm0_im0"><path codeLine="19" d="M249,316.51 C249,335.77 249,348.35 249,363.94 " fill="none" id="tm0-backto-im0" style="stroke:#181818;stroke-width:1.0;"/><polygon fill="#181818" points="249,304.51,245,310.51,249,316.51,253,310.51,249,304.51" style="stroke:#181818;stroke-width:1.0;"/></g><!--reverse link GlobalObject to tm1--><g id="link_GlobalObject_tm1"><path codeLine="27" d="M663.5449,194.9353 C649.2349,212.9453 638.37,226.63 624.05,244.66 " fill="none" id="GlobalObject-backto-tm1" style="stroke:#181818;stroke-width:1.0;"/><polygon fill="#181818" points="671.01,185.54,664.1457,187.7493,663.5449,194.9353,670.4092,192.726,671.01,185.54" style="stroke:#181818;stroke-width:1.0;"/></g><!--reverse link tm1 to im1--><g id="link_tm1_im1"><path codeLine="28" d="M600.2095,316.5078 C599.8395,335.7678 599.6,348.35 599.29,363.94 " fill="none" id="tm1-backto-im1" style="stroke:#181818;stroke-width:1.0;"/><polygon fill="#181818" points="600.44,304.51,596.3255,310.4321,600.2095,316.5078,604.324,310.5857,600.44,304.51" style="stroke:#181818;stroke-width:1.0;"/></g><!--reverse link GlobalObject to tm2--><g id="link_GlobalObject_tm2"><path codeLine="36" d="M724.1569,194.9735 C738.3169,212.9835 749.04,226.63 763.2,244.66 " fill="none" id="GlobalObject-backto-tm2" style="stroke:#181818;stroke-width:1.0;"/><polygon fill="#181818" points="716.74,185.54,717.3039,192.729,724.1569,194.9735,723.5929,187.7844,716.74,185.54" style="stroke:#181818;stroke-width:1.0;"/></g><!--reverse link tm2 to im2--><g id="link_tm2_im2"><path codeLine="37" d="M787.1825,316.5051 C787.7325,335.7651 788.11,348.35 788.56,363.94 " fill="none" id="tm2-backto-im2" style="stroke:#181818;stroke-width:1.0;"/><polygon fill="#181818" points="786.84,304.51,783.0129,310.6217,787.1825,316.5051,791.0096,310.3934,786.84,304.51" style="stroke:#181818;stroke-width:1.0;"/></g><!--reverse link GlobalObject to tm3--><g id="link_GlobalObject_tm3"><path codeLine="45" d="M848.4261,189.329 C860.4461,193.329 860.87,194.05 872,199.13 C897.66,210.85 923.46,229.28 942.94,244.89 " fill="none" id="GlobalObject-backto-tm3" style="stroke:#181818;stroke-width:1.0;"/><polygon fill="#181818" points="837.04,185.54,841.47,191.2299,848.4261,189.329,843.9961,183.6392,837.04,185.54" style="stroke:#181818;stroke-width:1.0;"/></g><!--reverse link tm3 to im3--><g id="link_tm3_im3"><path codeLine="46" d="M977.1825,316.5051 C977.7325,335.7651 978.11,348.35 978.56,363.94 " fill="none" id="tm3-backto-im3" style="stroke:#181818;stroke-width:1.0;"/><polygon fill="#181818" points="976.84,304.51,973.0129,310.6217,977.1825,316.5051,981.0096,310.3934,976.84,304.51" style="stroke:#181818;stroke-width:1.0;"/></g><!--SRC=[dT1HQuCm40VmztoAmwTkK379ynvaAviFSz2w3n3Jq6PBL9emACFlFcElJ5d5jJubb-D_ltEljmgKRVmHhBAbEZX2f17EGTeqHalXTLt1Du7k-n86TgOkXNahFvJqK1v1L-7KzIoSh1i53v2TAvjGYDVlUP6zhkv8YxdFmuJVOBy_AB6z8hXuMQ_Ifv1BXjJxvN8qWf16o4-nKn0L_GX88Xnxyc3vr1s1SE1jWXrddAwS5vLKL_2oV5Ea-MEtU0XfXmEpKLe_KjkaxnZzdB2AnuTW2lVGsFxTYSxlH0SxBU8u_Y-CJi4emYZ2w2KOcuUn6s5i2iOGnX36Bi7uF8pV2EDJC8umZZ3UmNu0]--></g></svg>